<svg xmlns="http://www.w3.org/2000/svg" width="128" height="128" viewBox="0 0 128 128">
<defs><radialGradient id="b" cx="0.38" cy="0.32" r="0.75"><stop offset="0" stop-color="#9B6A4A"/><stop offset="0.55" stop-color="#5A341F"/><stop offset="1" stop-color="#2E1A0E"/></radialGradient></defs>
<circle cx="64" cy="68" r="52" fill="#1E1008"/>
<circle cx="64" cy="64" r="52" fill="url(#b)"/>
<g stroke-width="7" stroke-linecap="round">
<line x1="36" y1="44" x2="44" y2="40" stroke="#FF4F8B"/>
<line x1="64" y1="30" x2="72" y2="34" stroke="#FFD23F"/>
<line x1="88" y1="46" x2="92" y2="54" stroke="#3DDC97"/>
<line x1="30" y1="70" x2="34" y2="78" stroke="#4DA3FF"/>
<line x1="54" y1="58" x2="62" y2="56" stroke="#B36BFF"/>
<line x1="80" y1="70" x2="88" y2="74" stroke="#FF8A3D"/>
<line x1="46" y1="92" x2="54" y2="96" stroke="#FFD23F"/>
<line x1="70" y1="88" x2="76" y2="82" stroke="#FF4F8B"/>
<line x1="96" y1="86" x2="98" y2="94" stroke="#4DA3FF"/>
<line x1="60" y1="108" x2="68" y2="106" stroke="#3DDC97"/>
<line x1="40" y1="104" x2="36" y2="98" stroke="#B36BFF" opacity="0.8"/>
</g>
<ellipse cx="46" cy="34" rx="16" ry="8" fill="#ffffff" opacity="0.35" transform="rotate(-25 46 34)"/>
</svg>
