<svg xmlns="http://www.w3.org/2000/svg" width="500" height="500" viewBox="-50 0 500 500">
<path d="M165,375 Q159,420 147,453" fill="none" stroke="#2B1D3A" stroke-width="12" stroke-linecap="round"/>
<ellipse cx="133" cy="463" rx="36" ry="19" fill="#E5484D" stroke="#2B1D3A" stroke-width="7" stroke-linejoin="round" stroke-linecap="round"/>
<ellipse cx="141" cy="456" rx="10" ry="5" fill="#ffffff" opacity="0.7"/>
<path d="M235,375 Q241,420 253,453" fill="none" stroke="#2B1D3A" stroke-width="12" stroke-linecap="round"/>
<ellipse cx="267" cy="463" rx="36" ry="19" fill="#E5484D" stroke="#2B1D3A" stroke-width="7" stroke-linejoin="round" stroke-linecap="round"/>
<ellipse cx="259" cy="456" rx="10" ry="5" fill="#ffffff" opacity="0.7"/>
<path d="M110,250 Q55,240 25,190" fill="none" stroke="#2B1D3A" stroke-width="11" stroke-linecap="round"/>
<circle cx="25" cy="190" r="23" fill="#ffffff" stroke="#2B1D3A" stroke-width="7" stroke-linejoin="round" stroke-linecap="round"/>
<circle cx="41" cy="196" r="10" fill="#ffffff" stroke="#2B1D3A" stroke-width="6" stroke-linejoin="round" stroke-linecap="round"/>
<path d="M290,250 Q345,240 375,190" fill="none" stroke="#2B1D3A" stroke-width="11" stroke-linecap="round"/>
<circle cx="375" cy="190" r="23" fill="#ffffff" stroke="#2B1D3A" stroke-width="7" stroke-linejoin="round" stroke-linecap="round"/>
<circle cx="359" cy="196" r="10" fill="#ffffff" stroke="#2B1D3A" stroke-width="6" stroke-linejoin="round" stroke-linecap="round"/>
<rect x="110" y="40" width="180" height="330" rx="16" fill="#6B3A1E" stroke="#2B1D3A" stroke-width="8" stroke-linejoin="round" stroke-linecap="round"/>
<rect x="126" y="55" width="68" height="34" rx="6" fill="#7E4524" stroke="#4A2410" stroke-width="3"/>
<rect x="206" y="55" width="68" height="34" rx="6" fill="#7E4524" stroke="#4A2410" stroke-width="3"/>
<rect x="126" y="99" width="68" height="34" rx="6" fill="#7E4524" stroke="#4A2410" stroke-width="3"/>
<rect x="206" y="99" width="68" height="34" rx="6" fill="#7E4524" stroke="#4A2410" stroke-width="3"/>
<rect x="126" y="143" width="68" height="34" rx="6" fill="#7E4524" stroke="#4A2410" stroke-width="3"/>
<rect x="206" y="143" width="68" height="34" rx="6" fill="#7E4524" stroke="#4A2410" stroke-width="3"/>
<path d="M102,200 L298,180 L298,372 Q298,382 288,382 L112,382 Q102,382 102,372 Z" fill="#E5392F" stroke="#2B1D3A" stroke-width="8" stroke-linejoin="round" stroke-linecap="round"/>
<path d="M102,200 L298,180" stroke="#F6EEDC" stroke-width="6" stroke-linecap="round"/>
<ellipse cx="162.95" cy="265" rx="20.994999999999997" ry="25.935" fill="#ffffff" stroke="#2B1D3A" stroke-width="6" stroke-linejoin="round" stroke-linecap="round"/>
<circle cx="167.89" cy="268.705" r="11.114999999999998" fill="#2B1D3A"/>
<circle cx="164.18499999999997" cy="263.765" r="3.952" fill="#ffffff"/>
<ellipse cx="135.78" cy="297.11" rx="14.819999999999999" ry="8.645" fill="#FF6FA3" opacity="0.55"/>
<ellipse cx="237.05" cy="265" rx="20.994999999999997" ry="25.935" fill="#ffffff" stroke="#2B1D3A" stroke-width="6" stroke-linejoin="round" stroke-linecap="round"/>
<circle cx="241.99" cy="268.705" r="11.114999999999998" fill="#2B1D3A"/>
<circle cx="238.285" cy="263.765" r="3.952" fill="#ffffff"/>
<ellipse cx="264.22" cy="297.11" rx="14.819999999999999" ry="8.645" fill="#FF6FA3" opacity="0.55"/>
<path d="M170.36,306.99 Q200,351.45 229.64,306.99 Z" fill="#7A1B2E" stroke="#2B1D3A" stroke-width="6" stroke-linejoin="round" stroke-linecap="round"/>
<path d="M186.415,325.515 Q200,316.87 213.585,325.515 Q200,337.865 186.415,325.515 Z" fill="#FF7EA8"/>
<ellipse cx="128" cy="75" rx="8" ry="20" fill="#ffffff" opacity="0.55" transform="rotate(0 128 75)"/>
</svg>
