<svg xmlns="http://www.w3.org/2000/svg" width="500" height="500" viewBox="-50 0 500 500">
<path d="M170,345 Q164,390 152,423" fill="none" stroke="#2B1D3A" stroke-width="12" stroke-linecap="round"/>
<ellipse cx="138" cy="433" rx="36" ry="19" fill="#FF9F43" stroke="#2B1D3A" stroke-width="7" stroke-linejoin="round" stroke-linecap="round"/>
<ellipse cx="146" cy="426" rx="10" ry="5" fill="#ffffff" opacity="0.7"/>
<path d="M230,345 Q236,390 248,423" fill="none" stroke="#2B1D3A" stroke-width="12" stroke-linecap="round"/>
<ellipse cx="262" cy="433" rx="36" ry="19" fill="#FF9F43" stroke="#2B1D3A" stroke-width="7" stroke-linejoin="round" stroke-linecap="round"/>
<ellipse cx="254" cy="426" rx="10" ry="5" fill="#ffffff" opacity="0.7"/>
<path d="M105,230 Q50,220 20,170" fill="none" stroke="#2B1D3A" stroke-width="11" stroke-linecap="round"/>
<circle cx="20" cy="170" r="23" fill="#ffffff" stroke="#2B1D3A" stroke-width="7" stroke-linejoin="round" stroke-linecap="round"/>
<circle cx="36" cy="176" r="10" fill="#ffffff" stroke="#2B1D3A" stroke-width="6" stroke-linejoin="round" stroke-linecap="round"/>
<path d="M295,230 Q350,220 380,170" fill="none" stroke="#2B1D3A" stroke-width="11" stroke-linecap="round"/>
<circle cx="380" cy="170" r="23" fill="#ffffff" stroke="#2B1D3A" stroke-width="7" stroke-linejoin="round" stroke-linecap="round"/>
<circle cx="364" cy="176" r="10" fill="#ffffff" stroke="#2B1D3A" stroke-width="6" stroke-linejoin="round" stroke-linecap="round"/>
<path d="M200,55 C250,120 315,180 315,250 C315,320 265,360 200,360 C135,360 85,320 85,250 C85,180 150,120 200,55 Z" fill="#5DBB46" stroke="#2B1D3A" stroke-width="8" stroke-linejoin="round" stroke-linecap="round"/>
<rect x="222" y="291" width="6" height="6" rx="1.5" fill="#ffffff" opacity="0.7" transform="rotate(72 222 291)"/>
<rect x="280" y="291" width="6" height="6" rx="1.5" fill="#ffffff" opacity="0.7" transform="rotate(83 280 291)"/>
<rect x="115" y="238" width="6" height="6" rx="1.5" fill="#ffffff" opacity="0.7" transform="rotate(85 115 238)"/>
<rect x="227" y="321" width="6" height="6" rx="1.5" fill="#ffffff" opacity="0.7" transform="rotate(10 227 321)"/>
<rect x="194" y="197" width="6" height="6" rx="1.5" fill="#ffffff" opacity="0.7" transform="rotate(49 194 197)"/>
<rect x="213" y="152" width="6" height="6" rx="1.5" fill="#ffffff" opacity="0.7" transform="rotate(20 213 152)"/>
<rect x="160" y="324" width="6" height="6" rx="1.5" fill="#ffffff" opacity="0.7" transform="rotate(69 160 324)"/>
<rect x="139" y="301" width="6" height="6" rx="1.5" fill="#ffffff" opacity="0.7" transform="rotate(12 139 301)"/>
<rect x="221" y="174" width="6" height="6" rx="1.5" fill="#ffffff" opacity="0.7" transform="rotate(0 221 174)"/>
<rect x="267" y="190" width="6" height="6" rx="1.5" fill="#ffffff" opacity="0.7" transform="rotate(19 267 190)"/>
<rect x="287" y="316" width="6" height="6" rx="1.5" fill="#ffffff" opacity="0.7" transform="rotate(26 287 316)"/>
<rect x="283" y="252" width="6" height="6" rx="1.5" fill="#ffffff" opacity="0.7" transform="rotate(61 283 252)"/>
<rect x="147" y="329" width="6" height="6" rx="1.5" fill="#ffffff" opacity="0.7" transform="rotate(62 147 329)"/>
<rect x="284" y="320" width="6" height="6" rx="1.5" fill="#ffffff" opacity="0.7" transform="rotate(27 284 320)"/>
<rect x="175" y="182" width="6" height="6" rx="1.5" fill="#ffffff" opacity="0.7" transform="rotate(13 175 182)"/>
<rect x="122" y="207" width="6" height="6" rx="1.5" fill="#ffffff" opacity="0.7" transform="rotate(54 122 207)"/>
<rect x="111" y="279" width="6" height="6" rx="1.5" fill="#ffffff" opacity="0.7" transform="rotate(30 111 279)"/>
<rect x="166" y="306" width="6" height="6" rx="1.5" fill="#ffffff" opacity="0.7" transform="rotate(43 166 306)"/>
<rect x="167" y="241" width="6" height="6" rx="1.5" fill="#ffffff" opacity="0.7" transform="rotate(63 167 241)"/>
<rect x="120" y="335" width="6" height="6" rx="1.5" fill="#ffffff" opacity="0.7" transform="rotate(2 120 335)"/>
<rect x="245" y="311" width="6" height="6" rx="1.5" fill="#ffffff" opacity="0.7" transform="rotate(2 245 311)"/>
<rect x="252" y="220" width="6" height="6" rx="1.5" fill="#ffffff" opacity="0.7" transform="rotate(52 252 220)"/>
<rect x="112" y="159" width="6" height="6" rx="1.5" fill="#ffffff" opacity="0.7" transform="rotate(16 112 159)"/>
<rect x="282" y="187" width="6" height="6" rx="1.5" fill="#ffffff" opacity="0.7" transform="rotate(68 282 187)"/>
<rect x="277" y="329" width="6" height="6" rx="1.5" fill="#ffffff" opacity="0.7" transform="rotate(31 277 329)"/>
<rect x="174" y="250" width="6" height="6" rx="1.5" fill="#ffffff" opacity="0.7" transform="rotate(70 174 250)"/>
<rect x="129" y="292" width="6" height="6" rx="1.5" fill="#ffffff" opacity="0.7" transform="rotate(72 129 292)"/>
<rect x="265" y="157" width="6" height="6" rx="1.5" fill="#ffffff" opacity="0.7" transform="rotate(85 265 157)"/>
<rect x="126" y="215" width="6" height="6" rx="1.5" fill="#ffffff" opacity="0.7" transform="rotate(55 126 215)"/>
<rect x="275" y="215" width="6" height="6" rx="1.5" fill="#ffffff" opacity="0.7" transform="rotate(83 275 215)"/>
<rect x="208" y="209" width="6" height="6" rx="1.5" fill="#ffffff" opacity="0.7" transform="rotate(29 208 209)"/>
<rect x="142" y="165" width="6" height="6" rx="1.5" fill="#ffffff" opacity="0.7" transform="rotate(13 142 165)"/>
<rect x="234" y="339" width="6" height="6" rx="1.5" fill="#ffffff" opacity="0.7" transform="rotate(15 234 339)"/>
<rect x="119" y="337" width="6" height="6" rx="1.5" fill="#ffffff" opacity="0.7" transform="rotate(48 119 337)"/>
<rect x="183" y="195" width="6" height="6" rx="1.5" fill="#ffffff" opacity="0.7" transform="rotate(53 183 195)"/>
<rect x="259" y="237" width="6" height="6" rx="1.5" fill="#ffffff" opacity="0.7" transform="rotate(38 259 237)"/>
<rect x="120" y="324" width="6" height="6" rx="1.5" fill="#ffffff" opacity="0.7" transform="rotate(3 120 324)"/>
<rect x="199" y="309" width="6" height="6" rx="1.5" fill="#ffffff" opacity="0.7" transform="rotate(12 199 309)"/>
<rect x="242" y="330" width="6" height="6" rx="1.5" fill="#ffffff" opacity="0.7" transform="rotate(57 242 330)"/>
<rect x="252" y="170" width="6" height="6" rx="1.5" fill="#ffffff" opacity="0.7" transform="rotate(39 252 170)"/>
<ellipse cx="161.0" cy="250" rx="22.1" ry="27.3" fill="#ffffff" stroke="#2B1D3A" stroke-width="6" stroke-linejoin="round" stroke-linecap="round"/>
<circle cx="166.2" cy="253.9" r="11.700000000000001" fill="#2B1D3A"/>
<circle cx="162.29999999999998" cy="248.70000000000002" r="4.16" fill="#ffffff"/>
<ellipse cx="132.39999999999998" cy="283.8" rx="15.600000000000001" ry="9.1" fill="#FF6FA3" opacity="0.55"/>
<ellipse cx="239.0" cy="250" rx="22.1" ry="27.3" fill="#ffffff" stroke="#2B1D3A" stroke-width="6" stroke-linejoin="round" stroke-linecap="round"/>
<circle cx="244.2" cy="253.9" r="11.700000000000001" fill="#2B1D3A"/>
<circle cx="240.29999999999998" cy="248.70000000000002" r="4.16" fill="#ffffff"/>
<ellipse cx="267.6" cy="283.8" rx="15.600000000000001" ry="9.1" fill="#FF6FA3" opacity="0.55"/>
<path d="M168.8,294.2 Q200,341.0 231.2,294.2 Z" fill="#7A1B2E" stroke="#2B1D3A" stroke-width="6" stroke-linejoin="round" stroke-linecap="round"/>
<path d="M185.7,313.7 Q200,304.59999999999997 214.3,313.7 Q200,326.7 185.7,313.7 Z" fill="#FF7EA8"/>
<ellipse cx="150" cy="170" rx="12" ry="28" fill="#ffffff" opacity="0.55" transform="rotate(25 150 170)"/>
</svg>
